<svg xmlns="http://www.w3.org/2000/svg" xmlns:xlink="http://www.w3.org/1999/xlink" width="1366" zoomAndPan="magnify" viewBox="0 0 1024.5 576" height="768" preserveAspectRatio="xMidYMid meet" version="1.0"><defs><clipPath id="0c529340fc"><path d="M 347.007812 255 L 502 255 L 502 398 L 347.007812 398 Z M 347.007812 255 " clip-rule="nonzero"/></clipPath></defs><path fill="#a6a6a6" d="M 627.246094 356.386719 C 627.246094 355.445312 627.203125 354.507812 627.113281 353.570312 C 627.023438 352.632812 626.886719 351.703125 626.710938 350.78125 C 626.53125 349.855469 626.308594 348.945312 626.042969 348.042969 C 625.773438 347.140625 625.464844 346.253906 625.113281 345.382812 C 624.761719 344.507812 624.371094 343.65625 623.9375 342.820312 C 623.503906 341.984375 623.03125 341.171875 622.519531 340.382812 C 622.007812 339.59375 621.460938 338.832031 620.878906 338.09375 C 620.292969 337.355469 619.675781 336.648438 619.023438 335.972656 C 618.371094 335.292969 617.6875 334.648438 616.972656 334.035156 C 616.261719 333.421875 615.519531 332.847656 614.75 332.304688 C 613.980469 331.765625 613.1875 331.261719 612.371094 330.796875 C 611.550781 330.332031 610.714844 329.90625 609.855469 329.519531 C 608.996094 329.136719 608.121094 328.792969 607.230469 328.492188 C 606.339844 328.191406 605.4375 327.933594 604.523438 327.71875 C 603.605469 327.503906 602.683594 327.332031 601.75 327.207031 C 600.816406 327.082031 599.882812 327 598.941406 326.964844 C 598.003906 326.929688 597.0625 326.9375 596.125 326.992188 C 595.183594 327.042969 594.25 327.144531 593.320312 327.285156 C 592.390625 327.429688 591.46875 327.617188 590.558594 327.847656 C 589.648438 328.082031 588.75 328.355469 587.863281 328.671875 C 586.976562 328.992188 586.109375 329.351562 585.257812 329.75 C 584.410156 330.152344 583.578125 330.59375 582.769531 331.074219 C 581.960938 331.554688 581.179688 332.070312 580.417969 332.625 C 579.660156 333.183594 578.929688 333.773438 578.226562 334.398438 C 577.523438 335.023438 576.855469 335.683594 576.214844 336.371094 C 575.574219 337.0625 574.96875 337.78125 574.398438 338.527344 C 573.828125 339.277344 573.296875 340.050781 572.800781 340.847656 C 572.304688 341.648438 571.847656 342.46875 571.429688 343.3125 C 571.011719 344.152344 570.636719 345.015625 570.300781 345.894531 C 569.964844 346.773438 569.671875 347.664062 569.421875 348.574219 C 569.175781 349.480469 568.96875 350.394531 568.808594 351.324219 C 568.644531 352.25 568.527344 353.179688 568.457031 354.117188 C 568.382812 355.058594 568.355469 355.996094 568.375 356.9375 C 568.390625 357.875 568.453125 358.8125 568.5625 359.75 C 568.667969 360.683594 568.820312 361.609375 569.019531 362.53125 C 569.214844 363.449219 569.453125 364.359375 569.738281 365.253906 C 570.019531 366.152344 570.347656 367.03125 570.714844 367.898438 C 571.082031 368.765625 571.492188 369.609375 571.941406 370.4375 C 572.390625 371.261719 572.875 372.066406 573.402344 372.84375 C 573.929688 373.625 574.492188 374.378906 575.089844 375.105469 C 575.6875 375.828125 576.320312 376.523438 576.984375 377.191406 C 577.648438 377.855469 578.34375 378.488281 579.070312 379.085938 C 579.792969 379.683594 580.546875 380.246094 581.324219 380.773438 C 582.105469 381.300781 582.90625 381.789062 583.734375 382.238281 C 584.558594 382.6875 585.40625 383.097656 586.273438 383.464844 C 587.136719 383.835938 588.019531 384.160156 588.914062 384.445312 C 589.8125 384.730469 590.71875 384.96875 591.640625 385.167969 C 592.558594 385.363281 593.484375 385.515625 594.417969 385.625 L 577.335938 385.625 C 576.496094 385.625 575.660156 385.667969 574.824219 385.75 C 573.992188 385.832031 573.160156 385.953125 572.339844 386.117188 C 571.515625 386.28125 570.703125 386.484375 569.898438 386.730469 C 569.097656 386.972656 568.308594 387.253906 567.53125 387.574219 C 566.757812 387.898438 566 388.253906 565.257812 388.652344 C 564.519531 389.046875 563.800781 389.476562 563.101562 389.945312 C 562.402344 390.410156 561.730469 390.910156 561.082031 391.441406 C 560.433594 391.972656 559.8125 392.535156 559.21875 393.128906 C 558.625 393.722656 558.0625 394.34375 557.53125 394.992188 C 556.996094 395.640625 556.496094 396.316406 556.03125 397.011719 C 555.566406 397.710938 555.132812 398.429688 554.738281 399.171875 C 554.34375 399.910156 553.984375 400.667969 553.664062 401.441406 C 553.34375 402.21875 553.058594 403.007812 552.816406 403.8125 C 552.574219 404.613281 552.371094 405.425781 552.207031 406.25 C 552.042969 407.074219 551.917969 407.902344 551.835938 408.738281 C 551.753906 409.574219 551.714844 410.410156 551.714844 411.25 L 551.714844 429.640625 C 551.714844 430.480469 551.753906 431.316406 551.835938 432.152344 C 551.917969 432.988281 552.042969 433.816406 552.207031 434.640625 C 552.371094 435.464844 552.574219 436.277344 552.816406 437.078125 C 553.058594 437.882812 553.34375 438.671875 553.664062 439.449219 C 553.984375 440.222656 554.34375 440.980469 554.738281 441.71875 C 555.132812 442.460938 555.566406 443.179688 556.03125 443.878906 C 556.496094 444.574219 556.996094 445.25 557.53125 445.898438 C 558.0625 446.546875 558.625 447.167969 559.21875 447.761719 C 559.8125 448.355469 560.433594 448.917969 561.082031 449.449219 C 561.730469 449.980469 562.402344 450.480469 563.101562 450.945312 C 563.800781 451.414062 564.519531 451.84375 565.257812 452.238281 C 566 452.636719 566.757812 452.992188 567.53125 453.316406 C 568.308594 453.636719 569.097656 453.917969 569.898438 454.160156 C 570.703125 454.40625 571.515625 454.609375 572.339844 454.773438 C 573.160156 454.9375 573.992188 455.058594 574.824219 455.140625 C 575.660156 455.222656 576.496094 455.265625 577.335938 455.265625 L 618.050781 455.265625 C 618.890625 455.265625 619.726562 455.222656 620.5625 455.140625 C 621.398438 455.058594 622.226562 454.9375 623.050781 454.773438 C 623.871094 454.609375 624.6875 454.40625 625.488281 454.160156 C 626.292969 453.917969 627.082031 453.636719 627.855469 453.316406 C 628.632812 452.992188 629.390625 452.636719 630.128906 452.238281 C 630.871094 451.84375 631.589844 451.414062 632.285156 450.945312 C 632.984375 450.480469 633.65625 449.980469 634.304688 449.449219 C 634.957031 448.917969 635.578125 448.355469 636.167969 447.761719 C 636.761719 447.167969 637.324219 446.546875 637.859375 445.898438 C 638.390625 445.25 638.890625 444.574219 639.355469 443.878906 C 639.824219 443.179688 640.253906 442.460938 640.648438 441.71875 C 641.042969 440.980469 641.402344 440.222656 641.722656 439.449219 C 642.046875 438.671875 642.328125 437.882812 642.570312 437.078125 C 642.816406 436.277344 643.019531 435.464844 643.183594 434.640625 C 643.347656 433.816406 643.46875 432.988281 643.550781 432.152344 C 643.632812 431.316406 643.675781 430.480469 643.675781 429.640625 L 643.675781 411.191406 C 643.675781 410.351562 643.632812 409.515625 643.550781 408.679688 C 643.46875 407.84375 643.347656 407.015625 643.183594 406.191406 C 643.019531 405.371094 642.816406 404.558594 642.570312 403.753906 C 642.328125 402.949219 642.046875 402.160156 641.722656 401.386719 C 641.402344 400.609375 641.042969 399.851562 640.648438 399.113281 C 640.253906 398.375 639.824219 397.652344 639.355469 396.957031 C 638.890625 396.257812 638.390625 395.585938 637.859375 394.9375 C 637.324219 394.289062 636.761719 393.667969 636.167969 393.074219 C 635.578125 392.480469 634.957031 391.917969 634.304688 391.382812 C 633.65625 390.851562 632.984375 390.351562 632.285156 389.886719 C 631.589844 389.421875 630.871094 388.988281 630.128906 388.59375 C 629.390625 388.199219 628.632812 387.839844 627.855469 387.519531 C 627.082031 387.199219 626.292969 386.914062 625.488281 386.671875 C 624.6875 386.429688 623.871094 386.222656 623.050781 386.0625 C 622.226562 385.898438 621.398438 385.773438 620.5625 385.691406 C 619.726562 385.609375 618.890625 385.566406 618.050781 385.566406 L 600.96875 385.566406 C 601.859375 385.472656 602.742188 385.332031 603.621094 385.15625 C 604.5 384.980469 605.367188 384.761719 606.226562 384.503906 C 607.085938 384.246094 607.929688 383.953125 608.761719 383.617188 C 609.59375 383.285156 610.40625 382.914062 611.207031 382.503906 C 612.003906 382.097656 612.78125 381.652344 613.539062 381.175781 C 614.296875 380.695312 615.027344 380.183594 615.738281 379.636719 C 616.449219 379.089844 617.132812 378.511719 617.792969 377.902344 C 618.449219 377.296875 619.078125 376.660156 619.675781 375.992188 C 620.277344 375.328125 620.84375 374.632812 621.382812 373.917969 C 621.917969 373.199219 622.421875 372.457031 622.890625 371.695312 C 623.359375 370.929688 623.792969 370.148438 624.1875 369.34375 C 624.585938 368.542969 624.945312 367.722656 625.269531 366.886719 C 625.59375 366.050781 625.875 365.203125 626.121094 364.339844 C 626.367188 363.476562 626.574219 362.605469 626.738281 361.726562 C 626.902344 360.847656 627.03125 359.960938 627.113281 359.066406 C 627.199219 358.175781 627.242188 357.28125 627.246094 356.386719 Z M 632.257812 411.25 L 632.257812 429.640625 C 632.257812 430.574219 632.167969 431.5 631.984375 432.417969 C 631.800781 433.335938 631.53125 434.226562 631.175781 435.089844 C 630.816406 435.953125 630.378906 436.773438 629.859375 437.550781 C 629.339844 438.328125 628.75 439.046875 628.089844 439.707031 C 627.425781 440.367188 626.707031 440.957031 625.929688 441.476562 C 625.152344 441.996094 624.332031 442.4375 623.46875 442.792969 C 622.605469 443.152344 621.714844 443.421875 620.800781 443.601562 C 619.882812 443.785156 618.957031 443.878906 618.023438 443.878906 L 577.566406 443.878906 C 576.628906 443.878906 575.703125 443.785156 574.789062 443.601562 C 573.871094 443.421875 572.980469 443.152344 572.117188 442.792969 C 571.253906 442.4375 570.433594 441.996094 569.65625 441.476562 C 568.878906 440.957031 568.160156 440.367188 567.5 439.707031 C 566.839844 439.046875 566.246094 438.328125 565.730469 437.550781 C 565.210938 436.773438 564.769531 435.953125 564.414062 435.089844 C 564.054688 434.226562 563.785156 433.335938 563.601562 432.417969 C 563.421875 431.5 563.328125 430.574219 563.328125 429.640625 L 563.328125 411.191406 C 563.328125 410.257812 563.421875 409.332031 563.601562 408.414062 C 563.785156 407.5 564.054688 406.609375 564.414062 405.746094 C 564.769531 404.882812 565.210938 404.058594 565.730469 403.285156 C 566.246094 402.507812 566.839844 401.789062 567.5 401.125 C 568.160156 400.464844 568.878906 399.875 569.65625 399.355469 C 570.433594 398.835938 571.253906 398.398438 572.117188 398.039062 C 572.980469 397.683594 573.871094 397.414062 574.789062 397.230469 C 575.703125 397.046875 576.628906 396.957031 577.566406 396.957031 L 618.050781 396.957031 C 618.988281 396.957031 619.914062 397.050781 620.832031 397.238281 C 621.75 397.421875 622.640625 397.695312 623.503906 398.054688 C 624.367188 398.414062 625.1875 398.855469 625.964844 399.378906 C 626.742188 399.898438 627.457031 400.492188 628.117188 401.15625 C 628.777344 401.820312 629.367188 402.542969 629.882812 403.320312 C 630.402344 404.101562 630.839844 404.925781 631.195312 405.789062 C 631.546875 406.65625 631.816406 407.546875 631.996094 408.46875 C 632.175781 409.386719 632.261719 410.3125 632.257812 411.25 Z M 597.808594 374.4375 C 597.214844 374.4375 596.625 374.40625 596.039062 374.347656 C 595.449219 374.292969 594.867188 374.203125 594.285156 374.089844 C 593.707031 373.972656 593.132812 373.832031 592.566406 373.660156 C 592.003906 373.488281 591.445312 373.289062 590.898438 373.0625 C 590.355469 372.835938 589.820312 372.582031 589.300781 372.304688 C 588.777344 372.027344 588.269531 371.722656 587.78125 371.394531 C 587.289062 371.066406 586.8125 370.714844 586.355469 370.339844 C 585.898438 369.964844 585.460938 369.566406 585.042969 369.148438 C 584.625 368.730469 584.230469 368.292969 583.855469 367.835938 C 583.480469 367.378906 583.128906 366.90625 582.800781 366.414062 C 582.472656 365.921875 582.167969 365.414062 581.886719 364.894531 C 581.609375 364.371094 581.359375 363.839844 581.132812 363.292969 C 580.90625 362.746094 580.707031 362.191406 580.535156 361.625 C 580.363281 361.058594 580.21875 360.488281 580.105469 359.90625 C 579.988281 359.328125 579.902344 358.742188 579.84375 358.15625 C 579.785156 357.566406 579.757812 356.976562 579.757812 356.386719 C 579.757812 355.792969 579.785156 355.203125 579.84375 354.617188 C 579.902344 354.027344 579.988281 353.445312 580.105469 352.863281 C 580.21875 352.285156 580.363281 351.710938 580.535156 351.144531 C 580.707031 350.578125 580.90625 350.023438 581.132812 349.476562 C 581.359375 348.929688 581.609375 348.398438 581.886719 347.875 C 582.167969 347.355469 582.472656 346.847656 582.800781 346.355469 C 583.128906 345.867188 583.480469 345.390625 583.855469 344.933594 C 584.230469 344.476562 584.625 344.039062 585.042969 343.621094 C 585.460938 343.203125 585.898438 342.808594 586.355469 342.433594 C 586.8125 342.058594 587.289062 341.707031 587.78125 341.375 C 588.269531 341.046875 588.777344 340.746094 589.300781 340.464844 C 589.820312 340.1875 590.355469 339.933594 590.898438 339.707031 C 591.445312 339.484375 592.003906 339.285156 592.566406 339.113281 C 593.132812 338.941406 593.707031 338.796875 594.285156 338.679688 C 594.867188 338.566406 595.449219 338.480469 596.039062 338.421875 C 596.625 338.363281 597.214844 338.335938 597.808594 338.335938 C 598.398438 338.335938 598.988281 338.363281 599.578125 338.421875 C 600.164062 338.480469 600.75 338.566406 601.328125 338.679688 C 601.910156 338.796875 602.480469 338.941406 603.046875 339.113281 C 603.613281 339.285156 604.167969 339.484375 604.714844 339.707031 C 605.261719 339.933594 605.796875 340.1875 606.316406 340.464844 C 606.839844 340.746094 607.34375 341.046875 607.835938 341.375 C 608.328125 341.707031 608.800781 342.058594 609.257812 342.433594 C 609.714844 342.808594 610.152344 343.203125 610.570312 343.621094 C 610.988281 344.039062 611.386719 344.476562 611.761719 344.933594 C 612.136719 345.390625 612.488281 345.867188 612.816406 346.355469 C 613.144531 346.847656 613.449219 347.355469 613.726562 347.875 C 614.003906 348.398438 614.257812 348.929688 614.484375 349.476562 C 614.710938 350.023438 614.910156 350.578125 615.082031 351.144531 C 615.253906 351.710938 615.394531 352.285156 615.511719 352.863281 C 615.628906 353.445312 615.714844 354.027344 615.773438 354.617188 C 615.828125 355.203125 615.859375 355.792969 615.859375 356.386719 C 615.859375 356.976562 615.828125 357.566406 615.769531 358.152344 C 615.710938 358.742188 615.621094 359.324219 615.507812 359.90625 C 615.390625 360.484375 615.246094 361.058594 615.074219 361.621094 C 614.902344 362.1875 614.703125 362.742188 614.476562 363.289062 C 614.25 363.835938 613.996094 364.367188 613.71875 364.890625 C 613.441406 365.410156 613.136719 365.914062 612.808594 366.40625 C 612.480469 366.898438 612.128906 367.371094 611.753906 367.828125 C 611.378906 368.285156 610.980469 368.722656 610.5625 369.140625 C 610.144531 369.558594 609.707031 369.957031 609.25 370.328125 C 608.792969 370.703125 608.320312 371.058594 607.828125 371.386719 C 607.339844 371.714844 606.832031 372.015625 606.3125 372.296875 C 605.789062 372.574219 605.257812 372.828125 604.710938 373.054688 C 604.164062 373.28125 603.609375 373.480469 603.042969 373.652344 C 602.480469 373.824219 601.90625 373.96875 601.328125 374.085938 C 600.746094 374.199219 600.164062 374.289062 599.578125 374.347656 C 598.988281 374.40625 598.398438 374.433594 597.808594 374.4375 Z M 597.808594 374.4375 " fill-opacity="1" fill-rule="nonzero"/><path fill="#a6a6a6" d="M 641.824219 122.867188 L 601.28125 122.867188 L 601.28125 171.808594 L 561.878906 186.898438 L 561.878906 167.707031 L 504.933594 189.574219 L 504.933594 242.132812 L 641.9375 242.132812 Z M 550.488281 230.742188 L 516.324219 230.742188 L 516.324219 197.375 L 550.488281 184.25 Z M 600.683594 230.742188 L 566.519531 230.742188 L 566.519531 197.375 L 600.683594 184.25 Z M 630.4375 134.253906 L 630.4375 176.789062 L 612.667969 176.789062 L 612.667969 134.253906 Z M 612.667969 230.742188 L 612.667969 188.035156 L 630.4375 188.035156 L 630.4375 230.742188 Z M 612.667969 230.742188 " fill-opacity="1" fill-rule="nonzero"/><g clip-path="url(#0c529340fc)"><path fill="#a6a6a6" d="M 351.789062 374.039062 L 370.75 374.039062 C 370.777344 374.808594 370.839844 375.578125 370.941406 376.34375 C 371.042969 377.109375 371.179688 377.871094 371.351562 378.621094 C 371.527344 379.375 371.734375 380.117188 371.980469 380.851562 C 372.222656 381.582031 372.503906 382.300781 372.816406 383.007812 C 373.132812 383.714844 373.480469 384.402344 373.859375 385.074219 C 374.238281 385.75 374.652344 386.402344 375.09375 387.035156 C 375.535156 387.667969 376.007812 388.277344 376.511719 388.863281 C 377.011719 389.453125 377.539062 390.015625 378.09375 390.550781 C 378.652344 391.089844 379.230469 391.597656 379.835938 392.078125 C 380.441406 392.558594 381.066406 393.011719 381.714844 393.429688 C 382.363281 393.851562 383.027344 394.242188 383.714844 394.597656 C 384.398438 394.953125 385.097656 395.277344 385.816406 395.566406 C 386.53125 395.855469 387.261719 396.109375 388 396.328125 C 388.742188 396.550781 389.492188 396.734375 390.25 396.878906 C 391.007812 397.027344 391.769531 397.136719 392.539062 397.210938 C 393.308594 397.285156 394.078125 397.324219 394.851562 397.324219 C 395.625 397.324219 396.394531 397.285156 397.164062 397.210938 C 397.933594 397.136719 398.695312 397.027344 399.453125 396.878906 C 400.214844 396.734375 400.960938 396.550781 401.703125 396.328125 C 402.445312 396.109375 403.171875 395.855469 403.886719 395.566406 C 404.605469 395.277344 405.304688 394.953125 405.992188 394.597656 C 406.675781 394.242188 407.34375 393.851562 407.988281 393.429688 C 408.636719 393.011719 409.265625 392.558594 409.867188 392.078125 C 410.472656 391.597656 411.054688 391.089844 411.609375 390.550781 C 412.164062 390.015625 412.691406 389.453125 413.195312 388.863281 C 413.695312 388.277344 414.167969 387.667969 414.609375 387.035156 C 415.054688 386.402344 415.464844 385.75 415.84375 385.074219 C 416.226562 384.402344 416.570312 383.714844 416.886719 383.007812 C 417.199219 382.300781 417.480469 381.582031 417.722656 380.851562 C 417.96875 380.117188 418.179688 379.375 418.351562 378.621094 C 418.523438 377.871094 418.660156 377.109375 418.761719 376.34375 C 418.863281 375.578125 418.925781 374.808594 418.953125 374.039062 L 425.929688 374.039062 C 425.964844 374.800781 426.039062 375.5625 426.148438 376.320312 C 426.257812 377.078125 426.402344 377.828125 426.585938 378.570312 C 426.765625 379.316406 426.980469 380.046875 427.230469 380.773438 C 427.484375 381.496094 427.769531 382.203125 428.085938 382.898438 C 428.40625 383.597656 428.753906 384.273438 429.140625 384.9375 C 429.523438 385.601562 429.9375 386.242188 430.378906 386.867188 C 430.824219 387.488281 431.296875 388.089844 431.796875 388.667969 C 432.300781 389.246094 432.828125 389.800781 433.382812 390.328125 C 433.9375 390.855469 434.515625 391.355469 435.117188 391.828125 C 435.71875 392.300781 436.339844 392.742188 436.984375 393.15625 C 437.628906 393.570312 438.289062 393.953125 438.972656 394.304688 C 439.652344 394.652344 440.347656 394.972656 441.058594 395.253906 C 441.769531 395.539062 442.492188 395.789062 443.226562 396.003906 C 443.960938 396.21875 444.703125 396.402344 445.453125 396.546875 C 446.207031 396.691406 446.960938 396.800781 447.722656 396.871094 C 448.484375 396.945312 449.25 396.980469 450.015625 396.980469 C 450.78125 396.980469 451.542969 396.945312 452.304688 396.871094 C 453.066406 396.800781 453.824219 396.691406 454.574219 396.546875 C 455.328125 396.402344 456.070312 396.21875 456.804688 396.003906 C 457.539062 395.789062 458.261719 395.539062 458.972656 395.253906 C 459.683594 394.972656 460.378906 394.652344 461.058594 394.304688 C 461.738281 393.953125 462.402344 393.570312 463.042969 393.15625 C 463.6875 392.742188 464.3125 392.300781 464.914062 391.828125 C 465.515625 391.355469 466.09375 390.855469 466.648438 390.328125 C 467.203125 389.800781 467.730469 389.246094 468.230469 388.667969 C 468.730469 388.089844 469.203125 387.488281 469.648438 386.867188 C 470.09375 386.242188 470.507812 385.601562 470.890625 384.9375 C 471.273438 384.273438 471.625 383.597656 471.941406 382.898438 C 472.261719 382.203125 472.546875 381.496094 472.796875 380.773438 C 473.046875 380.046875 473.265625 379.316406 473.445312 378.570312 C 473.625 377.828125 473.769531 377.078125 473.882812 376.320312 C 473.992188 375.5625 474.0625 374.800781 474.101562 374.039062 L 501.175781 374.039062 L 501.175781 310.746094 L 479.910156 281.59375 L 444.804688 281.59375 L 444.804688 255.457031 L 346.949219 255.457031 L 346.949219 342.578125 L 351.789062 342.578125 Z M 394.835938 385.625 C 394 385.625 393.171875 385.539062 392.351562 385.375 C 391.53125 385.210938 390.734375 384.96875 389.960938 384.648438 C 389.1875 384.324219 388.453125 383.933594 387.757812 383.46875 C 387.0625 383 386.417969 382.472656 385.828125 381.882812 C 385.234375 381.289062 384.707031 380.644531 384.242188 379.949219 C 383.777344 379.253906 383.382812 378.519531 383.0625 377.746094 C 382.738281 376.972656 382.496094 376.175781 382.332031 375.355469 C 382.167969 374.535156 382.085938 373.707031 382.082031 372.871094 C 382.089844 371.800781 382.222656 370.746094 382.480469 369.710938 C 382.652344 369.027344 382.878906 368.359375 383.164062 367.714844 C 383.445312 367.066406 383.777344 366.449219 384.164062 365.855469 C 384.550781 365.265625 384.980469 364.710938 385.457031 364.191406 C 385.933594 363.671875 386.453125 363.195312 387.007812 362.757812 C 387.566406 362.324219 388.152344 361.941406 388.773438 361.605469 C 389.394531 361.269531 390.039062 360.984375 390.703125 360.753906 C 391.371094 360.527344 392.054688 360.351562 392.75 360.238281 C 393.445312 360.121094 394.144531 360.0625 394.851562 360.0625 C 395.558594 360.0625 396.257812 360.121094 396.953125 360.238281 C 397.648438 360.351562 398.332031 360.527344 399 360.753906 C 399.667969 360.984375 400.308594 361.269531 400.929688 361.605469 C 401.550781 361.941406 402.140625 362.324219 402.695312 362.757812 C 403.253906 363.195312 403.769531 363.671875 404.246094 364.191406 C 404.722656 364.710938 405.15625 365.265625 405.539062 365.855469 C 405.925781 366.449219 406.257812 367.066406 406.542969 367.714844 C 406.824219 368.359375 407.050781 369.027344 407.222656 369.710938 C 407.484375 370.726562 407.617188 371.761719 407.621094 372.8125 C 407.625 373.652344 407.542969 374.488281 407.378906 375.3125 C 407.21875 376.136719 406.976562 376.9375 406.65625 377.714844 C 406.335938 378.492188 405.941406 379.230469 405.476562 379.929688 C 405.011719 380.628906 404.480469 381.277344 403.886719 381.871094 C 403.292969 382.464844 402.648438 382.996094 401.949219 383.464844 C 401.25 383.933594 400.511719 384.328125 399.738281 384.648438 C 398.960938 384.972656 398.160156 385.214844 397.335938 385.378906 C 396.511719 385.542969 395.679688 385.625 394.835938 385.625 Z M 450.015625 385.625 C 449.175781 385.625 448.347656 385.539062 447.527344 385.375 C 446.707031 385.210938 445.910156 384.96875 445.136719 384.648438 C 444.363281 384.324219 443.628906 383.933594 442.933594 383.46875 C 442.238281 383 441.59375 382.472656 441.003906 381.882812 C 440.410156 381.289062 439.882812 380.644531 439.417969 379.949219 C 438.953125 379.253906 438.558594 378.519531 438.238281 377.746094 C 437.917969 376.972656 437.675781 376.175781 437.507812 375.355469 C 437.34375 374.535156 437.261719 373.707031 437.257812 372.871094 C 437.265625 371.800781 437.398438 370.746094 437.65625 369.710938 C 437.828125 369.023438 438.050781 368.355469 438.332031 367.707031 C 438.613281 367.058594 438.945312 366.4375 439.328125 365.847656 C 439.710938 365.253906 440.140625 364.695312 440.617188 364.175781 C 441.09375 363.652344 441.609375 363.175781 442.167969 362.738281 C 442.722656 362.300781 443.3125 361.917969 443.929688 361.578125 C 444.550781 361.242188 445.195312 360.957031 445.863281 360.726562 C 446.53125 360.496094 447.214844 360.324219 447.910156 360.207031 C 448.605469 360.089844 449.308594 360.03125 450.015625 360.03125 C 450.722656 360.03125 451.421875 360.089844 452.121094 360.207031 C 452.816406 360.320312 453.496094 360.496094 454.164062 360.726562 C 454.832031 360.957031 455.476562 361.242188 456.097656 361.578125 C 456.71875 361.917969 457.308594 362.300781 457.863281 362.738281 C 458.417969 363.175781 458.933594 363.652344 459.410156 364.175781 C 459.886719 364.695312 460.316406 365.253906 460.703125 365.847656 C 461.085938 366.4375 461.417969 367.058594 461.695312 367.707031 C 461.976562 368.355469 462.203125 369.023438 462.371094 369.710938 C 462.632812 370.738281 462.765625 371.78125 462.769531 372.839844 C 462.769531 373.679688 462.6875 374.511719 462.523438 375.332031 C 462.363281 376.15625 462.121094 376.953125 461.800781 377.726562 C 461.480469 378.5 461.085938 379.238281 460.621094 379.933594 C 460.15625 380.632812 459.628906 381.277344 459.035156 381.871094 C 458.445312 382.464844 457.800781 382.996094 457.101562 383.460938 C 456.40625 383.925781 455.671875 384.320312 454.898438 384.644531 C 454.125 384.964844 453.328125 385.210938 452.503906 385.375 C 451.683594 385.539062 450.851562 385.625 450.015625 385.625 Z M 474.101562 292.980469 L 489.789062 314.5625 L 489.789062 362.761719 L 471.996094 362.761719 C 471.511719 361.726562 470.960938 360.730469 470.335938 359.773438 C 469.710938 358.816406 469.023438 357.90625 468.269531 357.046875 C 467.519531 356.1875 466.707031 355.382812 465.839844 354.640625 C 464.972656 353.894531 464.058594 353.214844 463.09375 352.601562 C 462.132812 351.984375 461.128906 351.441406 460.089844 350.972656 C 459.046875 350.5 457.980469 350.101562 456.882812 349.78125 C 455.785156 349.460938 454.671875 349.222656 453.539062 349.058594 C 452.410156 348.898438 451.269531 348.816406 450.128906 348.816406 C 448.984375 348.816406 447.847656 348.898438 446.71875 349.058594 C 445.585938 349.222656 444.472656 349.460938 443.375 349.78125 C 442.277344 350.101562 441.207031 350.5 440.167969 350.972656 C 439.128906 351.441406 438.125 351.984375 437.160156 352.601562 C 436.199219 353.214844 435.28125 353.894531 434.414062 354.640625 C 433.546875 355.382812 432.738281 356.1875 431.984375 357.046875 C 431.234375 357.90625 430.542969 358.816406 429.921875 359.773438 C 429.296875 360.730469 428.746094 361.726562 428.261719 362.761719 L 416.875 362.761719 C 416.390625 361.726562 415.835938 360.730469 415.210938 359.773438 C 414.585938 358.816406 413.898438 357.90625 413.144531 357.046875 C 412.390625 356.1875 411.582031 355.386719 410.710938 354.644531 C 409.84375 353.898438 408.929688 353.21875 407.964844 352.605469 C 407 351.992188 406 351.449219 404.957031 350.976562 C 403.917969 350.503906 402.847656 350.109375 401.75 349.789062 C 400.652344 349.46875 399.539062 349.230469 398.40625 349.066406 C 397.273438 348.90625 396.136719 348.824219 394.996094 348.824219 C 393.851562 348.824219 392.714844 348.90625 391.582031 349.066406 C 390.449219 349.230469 389.335938 349.46875 388.238281 349.789062 C 387.140625 350.109375 386.074219 350.503906 385.03125 350.976562 C 383.988281 351.449219 382.988281 351.992188 382.023438 352.605469 C 381.058594 353.21875 380.144531 353.898438 379.277344 354.644531 C 378.410156 355.386719 377.597656 356.1875 376.84375 357.046875 C 376.089844 357.90625 375.402344 358.816406 374.777344 359.773438 C 374.152344 360.730469 373.597656 361.726562 373.113281 362.761719 L 363.179688 362.761719 L 363.179688 342.832031 L 444.804688 342.832031 L 444.804688 292.980469 Z M 358.335938 266.84375 L 433.414062 266.84375 L 433.414062 331.1875 L 358.335938 331.1875 Z M 358.335938 266.84375 " fill-opacity="1" fill-rule="nonzero"/></g><path fill="#a6a6a6" d="M 515.042969 138.640625 C 521.136719 138.636719 527.207031 139.027344 533.25 139.804688 C 539.296875 140.585938 545.265625 141.746094 551.160156 143.292969 C 557.054688 144.839844 562.828125 146.761719 568.476562 149.050781 C 574.125 151.339844 579.601562 153.980469 584.910156 156.972656 L 590.605469 147.066406 C 588.085938 145.644531 585.527344 144.292969 582.929688 143.015625 C 580.335938 141.738281 577.703125 140.535156 575.039062 139.40625 C 572.375 138.277344 569.683594 137.222656 566.960938 136.246094 C 564.234375 135.269531 561.488281 134.367188 558.710938 133.546875 C 555.9375 132.726562 553.140625 131.984375 550.324219 131.320312 C 547.507812 130.65625 544.675781 130.074219 541.828125 129.570312 C 538.976562 129.066406 536.117188 128.644531 533.242188 128.300781 C 530.371094 127.960938 527.488281 127.699219 524.601562 127.519531 C 521.714844 127.339844 518.820312 127.242188 515.929688 127.230469 C 513.035156 127.214844 510.144531 127.277344 507.253906 127.425781 C 504.363281 127.574219 501.480469 127.804688 498.605469 128.117188 C 495.726562 128.425781 492.859375 128.816406 490.007812 129.292969 C 487.152344 129.765625 484.3125 130.316406 481.488281 130.949219 C 478.667969 131.585938 475.863281 132.296875 473.078125 133.089844 C 470.296875 133.878906 467.539062 134.75 464.804688 135.699219 C 462.070312 136.644531 459.367188 137.667969 456.6875 138.769531 C 454.011719 139.871094 451.371094 141.046875 448.761719 142.296875 C 446.152344 143.546875 443.578125 144.871094 441.042969 146.265625 C 438.507812 147.660156 436.015625 149.125 433.5625 150.664062 C 431.113281 152.199219 428.707031 153.804688 426.34375 155.476562 C 423.984375 157.148438 421.671875 158.886719 419.40625 160.6875 C 417.144531 162.492188 414.933594 164.359375 412.777344 166.285156 C 410.617188 168.214844 408.515625 170.199219 406.472656 172.246094 C 404.425781 174.292969 402.441406 176.398438 400.515625 178.558594 C 398.589844 180.714844 396.722656 182.925781 394.921875 185.191406 C 393.121094 187.457031 391.386719 189.769531 389.714844 192.132812 C 388.042969 194.496094 386.441406 196.902344 384.90625 199.355469 C 383.371094 201.808594 381.910156 204.304688 380.515625 206.839844 C 379.121094 209.375 377.800781 211.949219 376.554688 214.558594 C 375.304688 217.171875 374.132812 219.8125 373.03125 222.492188 C 371.933594 225.167969 370.910156 227.875 369.964844 230.609375 C 369.019531 233.34375 368.152344 236.101562 367.363281 238.886719 L 378.296875 241.734375 C 379.359375 238.054688 380.566406 234.425781 381.921875 230.84375 C 383.277344 227.261719 384.773438 223.742188 386.410156 220.28125 C 388.050781 216.820312 389.824219 213.433594 391.734375 210.113281 C 393.644531 206.796875 395.6875 203.5625 397.859375 200.40625 C 400.027344 197.253906 402.324219 194.195312 404.742188 191.226562 C 407.160156 188.257812 409.691406 185.390625 412.339844 182.625 C 414.988281 179.859375 417.742188 177.207031 420.605469 174.664062 C 423.46875 172.121094 426.425781 169.695312 429.484375 167.390625 C 432.542969 165.085938 435.6875 162.910156 438.917969 160.855469 C 442.152344 158.804688 445.460938 156.886719 448.847656 155.101562 C 452.234375 153.316406 455.6875 151.671875 459.207031 150.164062 C 462.726562 148.65625 466.300781 147.292969 469.929688 146.074219 C 473.558594 144.851562 477.230469 143.78125 480.945312 142.855469 C 484.664062 141.933594 488.410156 141.160156 492.1875 140.535156 C 495.964844 139.914062 499.761719 139.445312 503.578125 139.128906 C 507.390625 138.8125 511.214844 138.648438 515.042969 138.640625 Z M 515.042969 138.640625 " fill-opacity="1" fill-rule="nonzero"/><path fill="#a6a6a6" d="M 543.714844 431.605469 L 541.605469 420.417969 C 532.828125 422.070312 523.972656 422.898438 515.042969 422.894531 C 511.03125 422.910156 507.023438 422.757812 503.023438 422.429688 C 499.023438 422.105469 495.046875 421.605469 491.089844 420.941406 C 487.132812 420.273438 483.210938 419.4375 479.324219 418.433594 C 475.441406 417.433594 471.605469 416.265625 467.820312 414.933594 C 464.035156 413.601562 460.3125 412.109375 456.65625 410.460938 C 452.996094 408.808594 449.417969 407.007812 445.914062 405.046875 C 442.410156 403.089844 439 400.988281 435.675781 398.738281 C 432.351562 396.488281 429.132812 394.101562 426.011719 391.574219 L 418.867188 400.457031 C 422.246094 403.171875 425.734375 405.734375 429.328125 408.152344 C 432.925781 410.570312 436.617188 412.832031 440.402344 414.9375 C 444.191406 417.042969 448.058594 418.984375 452.011719 420.765625 C 455.960938 422.542969 459.980469 424.152344 464.066406 425.589844 C 468.152344 427.027344 472.292969 428.292969 476.488281 429.378906 C 480.683594 430.46875 484.914062 431.378906 489.183594 432.109375 C 493.457031 432.839844 497.75 433.386719 502.066406 433.757812 C 506.382812 434.125 510.710938 434.308594 515.042969 434.3125 C 524.683594 434.296875 534.238281 433.394531 543.714844 431.605469 Z M 543.714844 431.605469 " fill-opacity="1" fill-rule="nonzero"/><path fill="#a6a6a6" d="M 647.660156 229.519531 C 648.722656 232.269531 649.695312 235.050781 650.585938 237.863281 C 651.472656 240.675781 652.273438 243.515625 652.988281 246.375 C 653.699219 249.238281 654.320312 252.121094 654.855469 255.019531 C 655.386719 257.921875 655.832031 260.835938 656.183594 263.761719 C 656.535156 266.691406 656.796875 269.628906 656.964844 272.574219 C 657.132812 275.515625 657.210938 278.464844 657.199219 281.414062 C 657.183594 284.363281 657.078125 287.308594 656.882812 290.25 C 656.6875 293.195312 656.398438 296.128906 656.019531 299.054688 C 655.640625 301.976562 655.171875 304.886719 654.609375 307.785156 C 654.050781 310.679688 653.402344 313.554688 652.664062 316.410156 C 651.921875 319.265625 651.097656 322.09375 650.183594 324.898438 C 649.265625 327.703125 648.265625 330.476562 647.179688 333.21875 C 646.09375 335.960938 644.921875 338.664062 643.667969 341.332031 C 642.410156 344.003906 641.074219 346.628906 639.65625 349.214844 C 638.238281 351.800781 636.742188 354.339844 635.164062 356.832031 C 633.589844 359.328125 631.9375 361.769531 630.207031 364.15625 L 639.433594 370.820312 C 641.292969 368.242188 643.074219 365.609375 644.773438 362.917969 C 646.472656 360.230469 648.085938 357.492188 649.613281 354.703125 C 651.140625 351.914062 652.582031 349.078125 653.933594 346.199219 C 655.289062 343.324219 656.550781 340.40625 657.722656 337.449219 C 658.890625 334.492188 659.972656 331.5 660.957031 328.476562 C 661.941406 325.453125 662.835938 322.402344 663.628906 319.324219 C 664.425781 316.246094 665.128906 313.144531 665.730469 310.019531 C 666.335938 306.898438 666.84375 303.761719 667.253906 300.605469 C 667.660156 297.453125 667.972656 294.289062 668.1875 291.117188 C 668.398438 287.941406 668.511719 284.765625 668.527344 281.585938 C 668.546875 278.40625 668.460938 275.226562 668.28125 272.050781 C 668.101562 268.878906 667.820312 265.710938 667.441406 262.554688 C 667.066406 259.394531 666.589844 256.253906 666.015625 253.125 C 665.445312 249.996094 664.773438 246.886719 664.007812 243.800781 C 663.242188 240.714844 662.382812 237.652344 661.425781 234.621094 C 660.472656 231.585938 659.421875 228.585938 658.28125 225.617188 Z M 647.660156 229.519531 " fill-opacity="1" fill-rule="nonzero"/></svg>