<svg xmlns="http://www.w3.org/2000/svg" xmlns:xlink="http://www.w3.org/1999/xlink" width="1366" zoomAndPan="magnify" viewBox="0 0 1024.5 576" height="768" preserveAspectRatio="xMidYMid meet" version="1.0"><defs><clipPath id="e90e813e1a"><path d="M 667 400 L 702 400 L 702 434.605469 L 667 434.605469 Z M 667 400 " clip-rule="nonzero"/></clipPath><clipPath id="17bc65be3f"><path d="M 593 400 L 628 400 L 628 434.605469 L 593 434.605469 Z M 593 400 " clip-rule="nonzero"/></clipPath><clipPath id="11a83a2c01"><path d="M 301.882812 141.5 L 659 141.5 L 659 323 L 301.882812 323 Z M 301.882812 141.5 " clip-rule="nonzero"/></clipPath></defs><path fill="#a6a6a6" d="M 422.316406 357.863281 L 458.449219 357.863281 C 460.121094 357.863281 461.472656 356.507812 461.472656 354.839844 L 461.472656 191.5625 L 419.292969 220.785156 L 419.292969 354.839844 C 419.292969 356.507812 420.648438 357.863281 422.316406 357.863281 Z M 422.316406 357.863281 " fill-opacity="1" fill-rule="nonzero"/><path fill="#a6a6a6" d="M 481.039062 357.863281 L 517.171875 357.863281 C 518.84375 357.863281 520.195312 356.507812 520.195312 354.839844 L 520.195312 221.6875 L 478.015625 191.710938 L 478.015625 354.839844 C 478.015625 356.507812 479.367188 357.863281 481.039062 357.863281 Z M 481.039062 357.863281 " fill-opacity="1" fill-rule="nonzero"/><path fill="#a6a6a6" d="M 708.207031 367.636719 L 714.453125 336.03125 L 721.722656 299.261719 C 722.078125 297.472656 721.609375 295.617188 720.453125 294.207031 C 719.292969 292.800781 717.566406 291.984375 715.742188 291.984375 L 590.535156 291.984375 L 590.128906 289.152344 C 589.457031 284.492188 587.21875 280.207031 583.804688 276.988281 C 583.59375 276.792969 583.378906 276.597656 583.164062 276.410156 C 582.839844 276.128906 582.507812 275.859375 582.167969 275.601562 C 581.847656 275.359375 581.523438 275.125 581.195312 274.902344 C 580.996094 274.769531 580.796875 274.636719 580.59375 274.511719 C 580.515625 274.460938 580.4375 274.414062 580.363281 274.367188 C 577.125 272.398438 573.386719 271.335938 569.554688 271.335938 L 559.535156 271.335938 C 556.167969 271.335938 553.441406 274.066406 553.441406 277.433594 C 553.441406 280.167969 555.242188 282.484375 557.722656 283.257812 C 558.296875 283.433594 558.90625 283.53125 559.539062 283.53125 L 569.554688 283.53125 C 571.277344 283.53125 572.90625 284.054688 574.269531 284.957031 C 576.265625 286.273438 577.699219 288.402344 578.058594 290.894531 L 579.222656 298.949219 C 579.222656 298.949219 579.222656 298.949219 579.222656 298.953125 L 584.941406 338.59375 L 589.085938 367.324219 L 590.5 377.113281 C 590.742188 378.800781 591.175781 380.441406 591.785156 382.011719 C 593.097656 385.390625 595.21875 388.429688 598 390.835938 C 600.769531 393.238281 604.070312 394.902344 607.59375 395.71875 C 609.242188 396.101562 610.9375 396.300781 612.652344 396.300781 L 703.167969 396.300781 C 703.589844 396.300781 704 396.257812 704.398438 396.175781 C 707.175781 395.605469 709.265625 393.148438 709.265625 390.203125 C 709.265625 386.835938 706.535156 384.105469 703.167969 384.105469 L 612.652344 384.105469 C 612.105469 384.105469 611.5625 384.058594 611.03125 383.972656 C 609.171875 383.675781 607.421875 382.863281 605.984375 381.617188 C 605.382812 381.097656 604.847656 380.507812 604.390625 379.871094 C 603.4375 378.550781 602.804688 377.007812 602.570312 375.371094 L 602.164062 372.550781 L 702.230469 372.550781 C 705.136719 372.550781 707.644531 370.492188 708.207031 367.636719 Z M 697.21875 360.355469 L 600.402344 360.355469 L 596.449219 332.953125 L 592.296875 304.175781 L 708.324219 304.175781 L 702.351562 334.390625 Z M 697.21875 360.355469 " fill-opacity="1" fill-rule="nonzero"/><g clip-path="url(#e90e813e1a)"><path fill="#a6a6a6" d="M 688.863281 401.335938 C 687.394531 400.917969 685.84375 400.695312 684.242188 400.695312 C 674.921875 400.695312 667.339844 408.277344 667.339844 417.597656 C 667.339844 425.3125 672.539062 431.839844 679.617188 433.855469 C 681.089844 434.273438 682.640625 434.496094 684.242188 434.496094 C 693.558594 434.496094 701.140625 426.914062 701.140625 417.59375 C 701.140625 409.878906 695.941406 403.351562 688.863281 401.335938 Z M 679.53125 417.59375 C 679.53125 415 681.644531 412.886719 684.242188 412.886719 C 684.726562 412.886719 685.199219 412.960938 685.640625 413.097656 C 687.554688 413.695312 688.949219 415.484375 688.949219 417.59375 C 688.949219 420.191406 686.835938 422.304688 684.242188 422.304688 C 683.753906 422.304688 683.285156 422.226562 682.84375 422.089844 C 680.925781 421.492188 679.53125 419.703125 679.53125 417.59375 Z M 679.53125 417.59375 " fill-opacity="1" fill-rule="nonzero"/></g><path fill="#a6a6a6" d="M 559.535156 264.210938 L 569.554688 264.210938 C 572.769531 264.210938 575.933594 264.765625 578.917969 265.828125 L 578.917969 220.050781 L 549.140625 242.261719 L 536.734375 233.445312 L 536.734375 354.839844 C 536.734375 356.507812 538.089844 357.863281 539.757812 357.863281 L 575.894531 357.863281 C 577.5625 357.863281 578.917969 356.507812 578.917969 354.839844 L 578.917969 346.746094 L 571.003906 291.910156 C 570.90625 291.21875 570.253906 290.65625 569.554688 290.65625 L 559.535156 290.65625 C 552.246094 290.65625 546.3125 284.722656 546.3125 277.429688 C 546.3125 270.140625 552.246094 264.210938 559.535156 264.210938 Z M 559.535156 264.210938 " fill-opacity="1" fill-rule="nonzero"/><path fill="#a6a6a6" d="M 596.503906 284.855469 L 637.640625 284.855469 L 637.640625 176.246094 L 595.457031 207.710938 L 595.457031 281.730469 C 595.867188 282.75 596.21875 283.789062 596.503906 284.855469 Z M 596.503906 284.855469 " fill-opacity="1" fill-rule="nonzero"/><g clip-path="url(#17bc65be3f)"><path fill="#a6a6a6" d="M 610.152344 400.695312 C 608.84375 400.695312 607.566406 400.84375 606.339844 401.128906 C 598.851562 402.863281 593.253906 409.585938 593.253906 417.597656 C 593.253906 426.914062 600.835938 434.496094 610.15625 434.496094 C 611.609375 434.496094 613.023438 434.3125 614.371094 433.964844 C 614.457031 433.941406 614.542969 433.917969 614.625 433.894531 C 614.675781 433.882812 614.726562 433.867188 614.773438 433.855469 C 616.980469 433.226562 619.003906 432.160156 620.746094 430.757812 C 624.589844 427.65625 627.054688 422.910156 627.054688 417.597656 C 627.054688 414.011719 625.933594 410.6875 624.023438 407.949219 C 620.964844 403.566406 615.886719 400.695312 610.152344 400.695312 Z M 611.328125 422.15625 C 611.28125 422.167969 611.230469 422.175781 611.179688 422.1875 C 611.152344 422.195312 611.128906 422.203125 611.101562 422.207031 C 610.792969 422.269531 610.476562 422.304688 610.152344 422.304688 C 607.554688 422.304688 605.445312 420.191406 605.445312 417.597656 C 605.445312 415.324219 607.0625 413.421875 609.203125 412.984375 C 609.511719 412.921875 609.828125 412.886719 610.152344 412.886719 C 611.726562 412.886719 613.125 413.667969 613.980469 414.859375 C 614.53125 415.632812 614.859375 416.574219 614.859375 417.597656 C 614.859375 419 614.242188 420.261719 613.261719 421.125 C 612.714844 421.609375 612.058594 421.96875 611.328125 422.15625 Z M 611.328125 422.15625 " fill-opacity="1" fill-rule="nonzero"/></g><path fill="#a6a6a6" d="M 582.046875 368.4375 L 582.035156 368.371094 L 582.027344 368.304688 L 419.292969 368.304688 L 419.292969 380.5 L 583.890625 380.5 C 583.710938 379.71875 583.5625 378.929688 583.445312 378.128906 Z M 582.046875 368.4375 " fill-opacity="1" fill-rule="nonzero"/><g clip-path="url(#11a83a2c01)"><path fill="#a6a6a6" d="M 392.390625 271.125 C 387.613281 266.34375 382.054688 262.578125 375.878906 259.914062 C 382.566406 254.066406 386.800781 245.472656 386.800781 235.910156 C 386.800781 234.398438 386.691406 232.910156 386.484375 231.449219 L 470.101562 173.882812 L 549.640625 230.414062 L 636.117188 165.90625 L 644.019531 176.492188 C 644.929688 177.710938 646.835938 177.410156 647.324219 175.96875 L 658.15625 144.042969 C 658.582031 142.789062 657.617188 141.5 656.296875 141.550781 L 622.605469 142.859375 C 621.085938 142.917969 620.257812 144.660156 621.167969 145.878906 L 628.824219 156.136719 L 549.46875 215.332031 L 470.210938 159.003906 L 382.269531 219.546875 C 376.691406 210.257812 366.515625 204.027344 354.914062 204.027344 C 337.332031 204.027344 323.027344 218.328125 323.027344 235.910156 C 323.027344 245.472656 327.261719 254.066406 333.949219 259.914062 C 327.769531 262.578125 322.214844 266.34375 317.433594 271.125 C 312.570312 275.992188 308.75 281.660156 306.078125 287.972656 C 303.3125 294.507812 301.910156 301.449219 301.910156 308.601562 L 301.910156 316.492188 C 301.910156 319.859375 304.640625 322.589844 308.007812 322.589844 L 401.816406 322.589844 C 405.183594 322.589844 407.914062 319.859375 407.914062 316.492188 L 407.914062 308.601562 C 407.914062 301.449219 406.511719 294.507812 403.746094 287.972656 C 401.078125 281.65625 397.257812 275.992188 392.390625 271.125 Z M 354.914062 216.21875 C 365.773438 216.21875 374.605469 225.054688 374.605469 235.910156 C 374.605469 246.765625 365.773438 255.601562 354.914062 255.601562 C 344.058594 255.601562 335.222656 246.765625 335.222656 235.910156 C 335.222656 225.054688 344.058594 216.21875 354.914062 216.21875 Z M 395.722656 310.394531 L 314.109375 310.394531 L 314.109375 308.601562 C 314.109375 297.703125 318.351562 287.453125 326.058594 279.746094 C 333.769531 272.039062 344.015625 267.796875 354.914062 267.796875 C 365.816406 267.796875 376.0625 272.039062 383.769531 279.746094 C 391.476562 287.453125 395.722656 297.703125 395.722656 308.601562 Z M 395.722656 310.394531 " fill-opacity="1" fill-rule="nonzero"/></g></svg>